<svg width="163" height="130" viewBox="0 0 163 130" fill="none" xmlns="http://www.w3.org/2000/svg">
<path d="M62.2838 0C68.9638 0.97 75.5638 8.52999 78.7838 14.08C82.9338 21.25 83.1438 28.42 83.7838 36.37C88.1738 43.09 102.994 50.57 98.5838 58.43C97.9838 59.5 94.0438 62.35 92.7538 63.31C97.0738 69.39 97.2138 76.43 92.7938 82.48C98.8538 103 84.9938 101.24 69.5638 100.27C58.9438 113.04 64.6438 116.35 63.3338 125.96C61.9338 127.05 62.5338 126.73 60.5738 126.9C54.6038 122.62 60.7738 104.14 63.8738 98.89C60.2838 97.89 52.7138 96.89 52.9638 92.57C58.4738 88.44 97.9538 109.63 88.5338 81.97C88.3438 81.41 90.2438 77.11 90.6438 76.21C88.4738 74.76 84.9238 77.36 82.4238 74.52L82.6138 73.19C84.1738 71.56 88.3638 70.39 90.7038 69.56C86.1638 60.68 88.5738 60.15 95.6938 54.95C91.7738 50.84 84.9738 46.04 81.8338 41.63C76.3938 33.99 80.0738 24.51 74.6838 16.2C72.2538 12.48 70.6838 10.82 67.7238 7.45999C69.1938 13.19 69.8638 17.54 70.7438 23.42C71.7838 43.21 70.7338 52.8 54.7838 65.94C51.3738 68.75 46.3438 74.25 44.8138 78.29C40.0538 90.88 36.9838 104.62 30.4438 116.46C29.1038 118.88 22.4838 128.31 19.3738 126.14C19.1038 121.84 25.6638 115.1 27.7338 111.05C28.9438 108.66 29.7838 106.7 30.8038 104.23C29.3638 104.71 27.1538 105.42 25.7638 105.53C-11.0362 108.51 -1.2862 68.93 11.5138 49.37C13.7838 45.91 17.1238 36.82 21.9638 37.48C28.3738 42.11 38.9838 66.62 41.3138 74.95C47.7838 62.6 55.0338 61.6 61.9138 50.93C69.4438 38.92 66.8138 24.54 63.7938 11.63C63.0238 8.33 61.9038 3.26 62.2838 0ZM21.2138 101.5C51.9438 97.3 30.2838 57.82 20.9938 43.43C15.4238 52.98 10.7638 61.28 6.77381 71.69C1.44381 85.61 4.31378 99.62 21.2138 101.5Z" fill="#B76A66"/>
<path d="M44.794 7.51001C50.334 10.59 57.074 27.87 58.334 34.25C60.454 44.88 56.304 51.93 45.674 53.94C36.794 53.16 31.7139 48.25 31.8139 39.33C31.9139 31.79 39.744 12.36 44.794 7.51001ZM47.164 48.79C59.704 42.81 52.004 29.71 47.754 20.42C47.114 19.02 46.0539 16.77 44.9339 15.77C40.7439 25.45 27.844 48.11 47.164 48.79Z" fill="#B76A66"/>
<path d="M18.7336 57.53C23.2136 58.56 25.7736 66.31 27.4636 70.55C31.2136 79.93 34.4636 90.88 22.7236 95.5C2.87361 96.14 13.0436 74.19 17.8236 64.81C18.0536 64.35 18.5536 58.69 18.7336 57.53ZM21.0236 91.55C30.9836 86.73 25.0336 75.79 21.1536 68.34C18.1136 74.72 9.56363 88.49 21.0236 91.55Z" fill="#B76A66"/>
<path d="M125 72.1775C134.28 72.0175 146.6 70.8675 153.49 77.3975C156.57 80.2875 158.32 84.3375 158.3 88.5775C158.32 92.8475 156.62 96.9475 153.58 99.9575C147.78 105.698 140.58 105.578 133.1 105.588C131.67 107.068 132.44 125.538 132.49 129.388L125.03 129.328L125 72.1775ZM132.46 98.7675C137.75 98.3975 143.52 98.5975 147.82 95.5275C157.13 81.9675 142.78 78.5975 132.32 78.6375L132.46 98.7675Z" fill="#7D8287"/>
<path d="M141.543 3.0196C147.753 2.7696 157.803 4.85963 158.993 12.2296C157.403 16.0996 154.073 15.5696 151.663 13.0896C142.933 4.06961 127.283 15.7596 139.193 24.5496C144.593 28.5396 154.183 30.3396 158.533 35.6996C169.633 49.3896 156.233 64.2896 139.853 63.1296C133.753 61.3696 125.643 56.3896 125.003 48.2196C124.943 47.4696 125.893 47.0996 126.573 46.6496C134.533 45.9596 131.863 51.2696 136.963 54.6596C144.603 59.7396 157.073 52.1996 154.453 43.5196C151.593 34.0096 128.863 32.5096 127.343 21.1996C125.853 10.1696 132.133 5.3796 141.543 3.0196Z" fill="#B76A66"/>
</svg>
