<svg width="389" height="129" viewBox="0 0 389 129" fill="none" xmlns="http://www.w3.org/2000/svg">
<path d="M233.312 68.4721C239.886 68.3077 246.46 68.1916 253.043 68.1142C255.3 68.0949 259.608 67.8531 261.103 69.391C261.298 71.3255 261.651 72.9022 261.001 74.6722C258.587 75.1462 243.294 74.8463 239.895 74.8173L239.951 90.4869C243.544 89.9259 256.2 90.1 260.555 90.0516C260.676 92.0925 260.76 93.1759 260.537 95.2555C258.986 96.8031 259.246 96.3291 256.581 96.5323C251.168 96.7257 245.374 96.6967 239.914 96.7741L239.886 123.838L233.237 123.732C233.442 105.315 233.469 86.8887 233.312 68.4721Z" fill="#FEFEFF"/>
<path d="M190.701 68.4335C203.886 68.4915 229.171 67.5533 218.734 92.818C216.942 97.1513 211.333 98.8924 207.145 99.7823C212.81 107.917 218.836 115.897 224.565 124.099C221.984 124.089 218.121 124.38 215.837 123.519C210.275 117.522 203.357 105.18 197.813 98.0122C197.182 104.793 198.222 117.193 197.182 123.248C195.371 124.157 192.762 123.867 190.654 123.828L190.701 68.4335ZM197.656 93.8336C203.775 93.5144 206.449 93.94 211.788 90.9318C214.518 87.1789 215.827 81.327 211.547 78.106C207.136 74.769 202.791 74.8464 197.581 74.6626C197.563 80.9788 197.451 87.5271 197.656 93.8336Z" fill="#FEFEFF"/>
<path d="M110 68.5205C118.617 68.3657 130.057 67.2534 136.454 73.5696C139.314 76.3649 140.939 80.2823 140.921 84.3835C140.939 88.5137 139.361 92.4794 136.538 95.3909C131.152 100.943 124.467 100.827 117.521 100.837C116.193 102.268 116.908 120.133 116.955 123.857L110.028 123.799L110 68.5205ZM116.927 94.2398C121.839 93.8819 127.197 94.0754 131.19 91.1059C139.834 77.9899 126.51 74.7303 116.797 74.7689L116.927 94.2398Z" fill="#FEFEFF"/>
<path d="M270.872 68.3657C279.861 67.9691 290.827 68.2593 299.973 68.2593C300.215 69.6618 300.261 73.3277 300.307 74.914C292.767 74.7979 285.218 74.8173 277.679 74.9624C277.799 80.1662 277.883 85.3797 277.92 90.5836C280.966 90.1676 298.07 89.713 299.982 91.222C300.047 92.6535 300.326 96.1066 299.639 96.3194C294.968 97.7509 281.773 95.178 277.781 97.4511L277.632 99.5887C277.697 105.595 277.799 111.592 277.92 117.599C281.3 117.164 296.556 117.038 299.778 117.56C300.577 118.963 300.502 122.261 299.704 123.625C295.739 124.418 275.664 123.896 270.714 123.857C271.216 105.934 270.909 86.3953 270.872 68.3657Z" fill="#FEFEFF"/>
<path d="M149.891 68.4721C154.896 68.6462 176.903 67.6015 179.075 69.3039C179.438 71.7511 179.447 72.1476 179.177 74.5948C177.005 75.2622 160.439 74.943 156.809 74.972C156.901 80.1952 156.911 85.4087 156.837 90.6319C161.136 90.0612 173.671 90.3708 178.945 90.3514L179.354 96.832C176.253 96.7933 157.941 96.2807 156.549 97.277L156.363 100.188C156.335 105.953 156.391 111.718 156.53 117.483C160.653 117.183 175.983 116.68 179.177 118.208C179.688 120.046 179.781 122.223 178.583 123.712C173.838 124.486 155.574 123.973 149.538 123.993C150.151 106.127 149.845 86.4727 149.891 68.4721Z" fill="#FEFEFF"/>
<path d="M331.097 67.2437C336.985 66.615 346.066 66.9149 350.346 71.6641C352.64 74.2176 352.046 76.5584 351.879 79.8374C345.304 75.6298 339.742 72.641 331.775 73.9952C313.585 77.1194 309.091 104.58 324.022 114.958C330.364 119.369 336.102 118.886 343.113 117.386C346.929 115.442 347.923 114.833 351.359 112.163L351.544 121.342C341.302 126.508 331.497 127.359 321.385 121.623C302.303 110.78 303.724 78.1834 323.873 69.5361C326.213 68.5302 328.665 67.8918 331.097 67.2437Z" fill="#FEFEFF"/>
<path d="M382.317 68.6268C384.805 68.4237 386.579 67.8821 388.38 69.3523C388.789 71.1804 388.65 71.4802 388.102 73.2793C385.158 76.1908 380.116 74.9044 375.167 74.8753C375.446 90.9802 375.26 107.772 375.306 123.935L368.296 123.673L368.547 116.583C368.667 102.703 368.649 88.8232 368.482 74.943C365.445 74.972 357.487 75.7265 355.51 73.5502C355.51 71.3738 355.138 70.6194 356.122 69.0331C360.385 68.327 376.764 68.6655 382.317 68.6268Z" fill="#FEFEFF"/>
<path d="M216.008 0.99585C217.067 0.99585 218.172 1.0152 219.221 1.17963C222.815 1.74064 247.431 37.9064 251.526 43.5164C251.507 38.2739 250.848 3.87829 252.343 1.88574C254.432 1.17964 255.277 1.34405 257.413 1.49881C258.434 3.09479 258.638 52.0477 258.211 57.5804C257.069 57.3772 254.088 56.8646 253.448 56.1198C243.317 44.2129 231.302 26.1929 222.434 13.5025C222.471 19.6155 223.316 52.7731 222.155 56.5841C220.168 57.4159 218.172 56.9226 215.971 56.6808L216.008 0.99585Z" fill="#B76A66"/>
<path d="M150.787 1.24734C153.071 1.16996 155.392 0.821727 157.175 2.16621C157.807 5.3098 157.537 19.1706 157.593 23.3008C161.075 18.4452 168.197 12.0032 172.348 7.37006C178.355 0.657298 179.6 1.22797 187.78 1.22797C179.674 8.77258 171.326 18.1453 163.266 26.1832C168.503 32.925 175.208 40.3535 180.788 47.2307C183.62 50.6838 186.007 53.4018 189.062 56.6421L180.175 56.6034C173.741 50.7515 164.13 37.1519 157.482 29.7911C157.249 38.2255 157.76 46.689 157.435 55.0945C157.342 57.532 153.043 56.8259 151.622 56.381C150.369 54.0596 150.777 6.5479 150.787 1.24734Z" fill="#B76A66"/>
<path d="M121.361 0.0189629C127.127 -0.222851 136.459 1.79874 137.564 8.92742C136.088 12.6707 132.996 12.158 130.758 9.75925C122.651 1.03459 108.12 12.3418 119.179 20.844C124.193 24.7034 133.098 26.4444 137.137 31.6289C147.444 44.8707 135.001 59.2828 119.792 58.1608C114.127 56.4584 106.597 51.6415 106.003 43.739C105.947 43.0135 106.829 42.6556 107.46 42.2204C114.852 41.553 112.372 46.6891 117.108 49.9681C124.202 54.8818 135.781 47.5886 133.348 39.1929C130.693 29.9942 109.587 28.5434 108.175 17.6037C106.792 6.93487 112.623 2.30169 121.361 0.0189629Z" fill="#B76A66"/>
<path d="M195.701 1.23764C197.939 1.16994 199.155 1.23764 201.374 1.45044C203.241 3.36561 202.321 49.6972 202.461 56.7001L195.71 56.6711L195.562 21.6951C195.515 16.617 195.162 5.5903 195.701 1.23764Z" fill="#B76A66"/>
<path d="M57.8338 5.84961C64.0366 6.78785 70.165 14.1003 73.155 19.4686C77.0085 26.4038 77.2035 33.339 77.7978 41.0287C81.8741 47.5287 95.6353 54.7638 91.5404 62.3664C90.9832 63.4014 87.3247 66.1581 86.1269 67.0866C90.1382 72.9676 90.2682 79.777 86.164 85.6289C91.7911 105.477 78.9213 103.775 64.5937 102.836C54.7325 115.188 60.0252 118.39 58.8088 127.685C57.5089 128.74 58.066 128.43 56.246 128.594C50.7026 124.455 56.4317 106.58 59.3102 101.502C55.9767 100.534 48.9476 99.5671 49.1797 95.3885C54.296 91.3938 90.9554 111.89 82.2084 85.1357C82.032 84.594 83.7962 80.4348 84.1676 79.5642C82.1527 78.1617 78.8563 80.6766 76.5349 77.9296L76.7114 76.6431C78.1599 75.0665 82.0505 73.9348 84.2234 73.132C80.0077 64.5428 82.2455 64.0301 88.8568 59.0004C85.2169 55.0249 78.9027 50.3821 75.9871 46.1165C70.9358 38.7267 74.3528 29.5571 69.3479 21.5192C67.0915 17.921 65.6337 16.3153 62.8852 13.0653C64.2502 18.6077 64.8723 22.8153 65.6894 28.5027C66.6551 47.6448 65.6801 56.9208 50.8697 69.6305C47.7033 72.3485 43.0327 77.6684 41.612 81.5761C37.1921 93.7539 34.3414 107.044 28.2687 118.496C27.0244 120.837 20.8774 129.958 17.9896 127.859C17.7389 123.7 23.8302 117.181 25.7523 113.263C26.8759 110.952 27.6559 109.056 28.603 106.667C27.2659 107.131 25.2138 107.818 23.9231 107.924C-10.2477 110.807 -1.19431 72.5226 10.6912 53.6031C12.799 50.2564 15.9003 41.464 20.3945 42.1024C26.3466 46.5808 36.1985 70.2882 38.3621 78.3455C44.3698 66.3999 51.1018 65.4326 57.4903 55.112C64.4823 43.4952 62.0402 29.5861 59.236 17.0988C58.521 13.9069 57.481 9.00287 57.8338 5.84961ZM19.6981 104.026C48.2326 99.9637 28.1201 61.7764 19.4939 47.8576C14.3218 57.0949 9.99477 65.1231 6.28984 75.1923C1.34065 88.6565 4.00558 102.208 19.6981 104.026Z" fill="#B76A66"/>
<path d="M41.5935 13.1138C46.7377 16.0929 52.9962 32.8071 54.1662 38.9782C56.1347 49.2602 52.2812 56.0793 42.4107 58.0235C34.1651 57.2691 29.448 52.5198 29.5409 43.8919C29.6338 36.5988 36.9043 17.805 41.5935 13.1138ZM43.7942 53.0421C55.4383 47.2579 48.2884 34.5869 44.342 25.6011C43.7478 24.2469 42.7635 22.0706 41.7235 21.1033C37.8329 30.4664 25.8545 52.3844 43.7942 53.0421Z" fill="#B76A66"/>
<path d="M17.3958 61.496C21.5557 62.4922 23.9328 69.9885 25.502 74.0896C28.9841 83.1625 32.0019 93.754 21.1007 98.2227C2.66891 98.8418 12.1123 77.6105 16.5508 68.5376C16.7644 68.0927 17.2286 62.618 17.3958 61.496ZM19.5222 94.402C28.7706 89.7399 23.2457 79.1581 19.6429 71.952C16.8201 78.1231 8.88095 91.4422 19.5222 94.402Z" fill="#B76A66"/>
</svg>
