<svg width="626" height="127" viewBox="0 0 626 127" fill="none" xmlns="http://www.w3.org/2000/svg">
<path d="M62.2838 0C68.9638 0.97 75.5638 8.52999 78.7838 14.08C82.9338 21.25 83.1438 28.42 83.7838 36.37C88.1738 43.09 102.994 50.57 98.5838 58.43C97.9838 59.5 94.0438 62.35 92.7538 63.31C97.0738 69.39 97.2138 76.43 92.7938 82.48C98.8538 103 84.9938 101.24 69.5638 100.27C58.9438 113.04 64.6438 116.35 63.3338 125.96C61.9338 127.05 62.5338 126.73 60.5738 126.9C54.6038 122.62 60.7738 104.14 63.8738 98.89C60.2838 97.89 52.7138 96.89 52.9638 92.57C58.4738 88.44 97.9538 109.63 88.5338 81.97C88.3438 81.41 90.2438 77.11 90.6438 76.21C88.4738 74.76 84.9238 77.36 82.4238 74.52L82.6138 73.19C84.1738 71.56 88.3638 70.39 90.7038 69.56C86.1638 60.68 88.5738 60.15 95.6938 54.95C91.7738 50.84 84.9738 46.04 81.8338 41.63C76.3938 33.99 80.0738 24.51 74.6838 16.2C72.2538 12.48 70.6838 10.82 67.7238 7.45999C69.1938 13.19 69.8638 17.54 70.7438 23.42C71.7838 43.21 70.7338 52.8 54.7838 65.94C51.3738 68.75 46.3438 74.25 44.8138 78.29C40.0538 90.88 36.9838 104.62 30.4438 116.46C29.1038 118.88 22.4838 128.31 19.3738 126.14C19.1038 121.84 25.6638 115.1 27.7338 111.05C28.9438 108.66 29.7838 106.7 30.8038 104.23C29.3638 104.71 27.1538 105.42 25.7638 105.53C-11.0362 108.51 -1.2862 68.93 11.5138 49.37C13.7838 45.91 17.1238 36.82 21.9638 37.48C28.3738 42.11 38.9838 66.62 41.3138 74.95C47.7838 62.6 55.0338 61.6 61.9138 50.93C69.4438 38.92 66.8138 24.54 63.7938 11.63C63.0238 8.33 61.9038 3.26 62.2838 0ZM21.2138 101.5C51.9438 97.3 30.2838 57.82 20.9938 43.43C15.4238 52.98 10.7638 61.28 6.77381 71.69C1.44381 85.61 4.31378 99.62 21.2138 101.5Z" fill="url(#paint0_linear_26_21)"/>
<path d="M44.7937 7.51001C50.3337 10.59 57.0737 27.87 58.3337 34.25C60.4537 44.88 56.3037 51.93 45.6737 53.94C36.7937 53.16 31.7137 48.25 31.8137 39.33C31.9137 31.79 39.7437 12.36 44.7937 7.51001ZM47.1637 48.79C59.7037 42.81 52.0037 29.71 47.7537 20.42C47.1137 19.02 46.0537 16.77 44.9337 15.77C40.7437 25.45 27.8437 48.11 47.1637 48.79Z" fill="url(#paint1_linear_26_21)"/>
<path d="M18.7339 57.53C23.2139 58.56 25.7738 66.31 27.4638 70.55C31.2138 79.93 34.4639 90.88 22.7239 95.5C2.87385 96.14 13.0439 74.19 17.8239 64.81C18.0539 64.35 18.5539 58.69 18.7339 57.53ZM21.0239 91.55C30.9839 86.73 25.0338 75.79 21.1538 68.34C18.1138 74.72 9.56387 88.49 21.0239 91.55Z" fill="url(#paint2_linear_26_21)"/>
<path d="M458.094 41.79C465.174 41.62 472.254 41.5 479.344 41.42C481.774 41.4 486.414 41.15 488.024 42.74C488.234 44.74 488.614 46.37 487.914 48.2C485.314 48.69 468.844 48.38 465.184 48.35L465.244 64.55C469.114 63.97 482.744 64.15 487.434 64.1C487.564 66.21 487.654 67.33 487.414 69.48C485.744 71.08 486.024 70.59 483.154 70.8C477.324 71 471.084 70.97 465.204 71.05L465.174 99.03L458.014 98.92C458.234 79.88 458.264 60.83 458.094 41.79Z" fill="#7D8287"/>
<path d="M412.204 41.75C426.404 41.81 453.634 40.84 442.394 66.96C440.464 71.44 434.424 73.24 429.914 74.16C436.014 82.57 442.504 90.82 448.674 99.3C445.894 99.29 441.734 99.59 439.274 98.7C433.284 92.5 425.834 79.74 419.864 72.33C419.184 79.34 420.304 92.16 419.184 98.42C417.234 99.36 414.424 99.06 412.154 99.02L412.204 41.75ZM419.694 68.01C426.284 67.68 429.164 68.12 434.914 65.01C437.854 61.13 439.264 55.08 434.654 51.75C429.904 48.3 425.224 48.38 419.614 48.19C419.594 54.72 419.474 61.49 419.694 68.01Z" fill="#7D8287"/>
<path d="M325.294 41.84C334.574 41.68 346.894 40.53 353.784 47.06C356.864 49.95 358.614 54 358.594 58.24C358.614 62.51 356.914 66.61 353.874 69.62C348.074 75.36 340.874 75.24 333.394 75.25C331.964 76.73 332.734 95.2 332.784 99.05L325.324 98.99L325.294 41.84ZM332.754 68.43C338.044 68.06 343.814 68.26 348.114 65.19C357.424 51.63 343.074 48.26 332.614 48.3L332.754 68.43Z" fill="#7D8287"/>
<path d="M498.544 41.68C508.224 41.27 520.034 41.57 529.884 41.57C530.144 43.02 530.194 46.81 530.244 48.45C522.124 48.33 513.994 48.35 505.874 48.5C506.004 53.88 506.094 59.27 506.134 64.65C509.414 64.22 527.834 63.75 529.894 65.31C529.964 66.79 530.264 70.36 529.524 70.58C524.494 72.06 510.284 69.4 505.984 71.75L505.824 73.96C505.894 80.17 506.004 86.37 506.134 92.58C509.774 92.13 526.204 92 529.674 92.54C530.534 93.99 530.454 97.4 529.594 98.81C525.324 99.63 503.704 99.09 498.374 99.05C498.914 80.52 498.584 60.32 498.544 41.68Z" fill="#7D8287"/>
<path d="M368.254 41.79C373.644 41.97 397.344 40.89 399.684 42.65C400.074 45.18 400.084 45.59 399.794 48.12C397.454 48.81 379.614 48.48 375.704 48.51C375.804 53.91 375.814 59.3 375.734 64.7C380.364 64.11 393.864 64.43 399.544 64.41L399.984 71.11C396.644 71.07 376.924 70.54 375.424 71.57L375.224 74.58C375.194 80.54 375.254 86.5 375.404 92.46C379.844 92.15 396.354 91.63 399.794 93.21C400.344 95.11 400.444 97.36 399.154 98.9C394.044 99.7 374.374 99.17 367.874 99.19C368.534 80.72 368.204 60.4 368.254 41.79Z" fill="#7D8287"/>
<path d="M563.404 40.52C569.744 39.87 579.524 40.18 584.134 45.09C586.604 47.73 585.964 50.15 585.784 53.54C578.704 49.19 572.714 46.1 564.134 47.5C544.544 50.73 539.704 79.12 555.784 89.85C562.614 94.41 568.794 93.91 576.344 92.36C580.454 90.35 581.524 89.72 585.224 86.96L585.424 96.45C574.394 101.79 563.834 102.67 552.944 96.74C532.394 85.53 533.924 51.83 555.624 42.89C558.144 41.85 560.784 41.19 563.404 40.52Z" fill="#7D8287"/>
<path d="M618.564 41.95C621.244 41.74 623.154 41.18 625.094 42.7C625.534 44.59 625.384 44.9 624.794 46.76C621.624 49.77 616.194 48.44 610.864 48.41C611.164 65.06 610.964 82.42 611.014 99.13L603.464 98.86L603.734 91.53C603.864 77.18 603.844 62.83 603.664 48.48C600.394 48.51 591.824 49.29 589.694 47.04C589.694 44.79 589.294 44.01 590.354 42.37C594.944 41.64 612.584 41.99 618.564 41.95Z" fill="#7D8287"/>
<path d="M241.384 41.49C242.524 41.49 243.714 41.51 244.844 41.68C248.714 42.26 275.224 79.65 279.634 85.45C279.614 80.03 278.904 44.47 280.514 42.41C282.764 41.68 283.674 41.85 285.974 42.01C287.074 43.66 287.294 94.27 286.834 99.99C285.604 99.78 282.394 99.25 281.704 98.48C270.794 86.17 257.854 67.54 248.304 54.42C248.344 60.74 249.254 95.02 248.004 98.96C245.864 99.82 243.714 99.31 241.344 99.06L241.384 41.49Z" fill="url(#paint3_linear_26_21)"/>
<path d="M171.144 41.75C173.604 41.67 176.104 41.31 178.024 42.7C178.704 45.95 178.414 60.28 178.474 64.55C182.224 59.53 189.894 52.87 194.364 48.08C200.834 41.14 202.174 41.73 210.984 41.73C202.254 49.53 193.264 59.22 184.584 67.53C190.224 74.5 197.444 82.18 203.454 89.29C206.504 92.86 209.074 95.67 212.364 99.02L202.794 98.98C195.864 92.93 185.514 78.87 178.354 71.26C178.104 79.98 178.654 88.73 178.304 97.42C178.204 99.94 173.574 99.21 172.044 98.75C170.694 96.35 171.134 47.23 171.144 41.75Z" fill="url(#paint4_linear_26_21)"/>
<path d="M139.454 40.4801C145.664 40.2301 155.714 42.3201 156.904 49.6901C155.314 53.5601 151.984 53.0301 149.574 50.5501C140.844 41.5301 125.194 53.2201 137.104 62.0101C142.504 66.0001 152.094 67.8001 156.444 73.1601C167.544 86.8501 154.144 101.75 137.764 100.59C131.664 98.8301 123.554 93.8501 122.914 85.6801C122.854 84.9301 123.804 84.5601 124.484 84.1101C132.444 83.4201 129.774 88.7301 134.874 92.1201C142.514 97.2001 154.984 89.6601 152.364 80.9801C149.504 71.4701 126.774 69.9701 125.254 58.6601C123.764 47.6301 130.044 42.8401 139.454 40.4801Z" fill="url(#paint5_linear_26_21)"/>
<path d="M219.514 41.74C221.924 41.67 223.234 41.74 225.624 41.96C227.634 43.94 226.644 91.84 226.794 99.08L219.524 99.05L219.364 62.89C219.314 57.64 218.934 46.24 219.514 41.74Z" fill="url(#paint6_linear_26_21)"/>
<defs>
<linearGradient id="paint0_linear_26_21" x1="0" y1="63.45" x2="99.3943" y2="63.45" gradientUnits="userSpaceOnUse">
<stop stop-color="#B76A66"/>
<stop offset="1" stop-color="#512F2D"/>
</linearGradient>
<linearGradient id="paint1_linear_26_21" x1="31.8123" y1="30.725" x2="58.8703" y2="30.725" gradientUnits="userSpaceOnUse">
<stop stop-color="#B76A66"/>
<stop offset="1" stop-color="#512F2D"/>
</linearGradient>
<linearGradient id="paint2_linear_26_21" x1="10.9368" y1="76.5219" x2="30.9162" y2="76.5219" gradientUnits="userSpaceOnUse">
<stop stop-color="#B76A66"/>
<stop offset="1" stop-color="#512F2D"/>
</linearGradient>
<linearGradient id="paint3_linear_26_21" x1="241.344" y1="70.74" x2="287.06" y2="70.74" gradientUnits="userSpaceOnUse">
<stop stop-color="#B76A66"/>
<stop offset="1" stop-color="#512F2D"/>
</linearGradient>
<linearGradient id="paint4_linear_26_21" x1="171.068" y1="70.4316" x2="212.364" y2="70.4316" gradientUnits="userSpaceOnUse">
<stop stop-color="#B76A66"/>
<stop offset="1" stop-color="#512F2D"/>
</linearGradient>
<linearGradient id="paint5_linear_26_21" x1="122.911" y1="70.5571" x2="160.513" y2="70.5571" gradientUnits="userSpaceOnUse">
<stop stop-color="#B76A66"/>
<stop offset="1" stop-color="#512F2D"/>
</linearGradient>
<linearGradient id="paint6_linear_26_21" x1="219.196" y1="70.3969" x2="226.908" y2="70.3969" gradientUnits="userSpaceOnUse">
<stop stop-color="#B76A66"/>
<stop offset="1" stop-color="#512F2D"/>
</linearGradient>
</defs>
</svg>
