<svg width="279" height="265" viewBox="0 0 279 265" fill="none" xmlns="http://www.w3.org/2000/svg">
<path d="M138.643 0C144.846 0.938239 150.974 8.25069 153.964 13.619C157.818 20.5542 158.013 27.4894 158.607 35.1791C162.683 41.6791 176.445 48.9142 172.35 56.5168C171.793 57.5518 168.134 60.3085 166.936 61.237C170.948 67.118 171.078 73.9274 166.973 79.7793C172.6 99.6274 159.731 97.9251 145.403 96.9868C135.542 109.339 140.835 112.54 139.618 121.836C138.318 122.89 138.875 122.58 137.055 122.745C131.512 118.605 137.241 100.73 140.12 95.652C136.786 94.6848 129.757 93.7175 129.989 89.5389C135.105 85.5442 171.765 106.04 163.018 79.286C162.841 78.7444 164.606 74.5852 164.977 73.7146C162.962 72.3121 159.666 74.827 157.344 72.08L157.521 70.7935C158.969 69.2169 162.86 68.0852 165.033 67.2824C160.817 58.6931 163.055 58.1805 169.666 53.1507C166.026 49.1753 159.712 44.5325 156.796 40.2669C151.745 32.8771 155.162 23.7074 150.157 15.6695C147.901 12.0713 146.443 10.4657 143.695 7.21573C145.059 12.7581 145.682 16.9657 146.499 22.6531C147.464 41.7952 146.489 51.0712 131.679 63.7809C128.513 66.4989 123.842 71.8188 122.421 75.7265C118.001 87.9043 115.151 101.194 109.078 112.647C107.834 114.987 101.687 124.109 98.7989 122.01C98.5482 117.851 104.64 111.331 106.562 107.414C107.685 105.102 108.465 103.206 109.412 100.817C108.075 101.281 106.023 101.968 104.732 102.075C70.5616 104.957 79.615 66.673 91.5005 47.7535C93.6083 44.4068 96.7097 35.6144 101.204 36.2528C107.156 40.7312 117.008 64.4386 119.171 72.4959C125.179 60.5503 131.911 59.583 138.3 49.2624C145.292 37.6456 142.85 23.7365 140.045 11.2492C139.33 8.05725 138.29 3.15326 138.643 0ZM100.507 98.1766C129.042 94.1141 108.929 55.9268 100.303 42.008C95.1312 51.2453 90.8041 59.2735 87.0992 69.3426C82.15 82.8069 84.8149 96.3581 100.507 98.1766Z" fill="url(#paint0_linear_27_40)"/>
<path d="M122.403 7.26412C127.547 10.2433 133.806 26.9575 134.975 33.1286C136.944 43.4105 133.091 50.2297 123.22 52.1739C114.974 51.4194 110.257 46.6702 110.35 38.0422C110.443 30.7491 117.714 11.9553 122.403 7.26412ZM124.604 47.1925C136.248 41.4083 129.098 28.7372 125.151 19.7514C124.557 18.3973 123.573 16.2209 122.533 15.2537C118.642 24.6167 106.664 46.5347 124.604 47.1925Z" fill="url(#paint1_linear_27_40)"/>
<path d="M98.2049 55.6463C102.365 56.6426 104.742 64.1388 106.311 68.24C109.793 77.3129 112.811 87.9043 101.91 92.3731C83.478 92.9921 92.9214 71.7608 97.3599 62.6879C97.5734 62.243 98.0377 56.7683 98.2049 55.6463ZM100.331 88.5524C109.58 83.8902 104.055 73.3084 100.452 66.1024C97.6291 72.2735 89.69 85.5926 100.331 88.5524Z" fill="url(#paint2_linear_27_40)"/>
<path d="M123.312 207.891C129.886 207.726 136.46 207.61 143.044 207.533C145.3 207.513 149.608 207.272 151.103 208.81C151.298 210.744 151.651 212.321 151.001 214.091C148.587 214.565 133.294 214.265 129.895 214.236L129.951 229.905C133.545 229.344 146.201 229.519 150.556 229.47C150.676 231.511 150.76 232.594 150.537 234.674C148.986 236.222 149.246 235.748 146.581 235.951C141.168 236.144 135.374 236.115 129.914 236.193L129.886 263.256L123.238 263.15C123.442 244.733 123.47 226.307 123.312 207.891Z" fill="#7D8287"/>
<path d="M80.7007 207.852C93.8862 207.91 119.171 206.972 108.734 232.236C106.942 236.57 101.333 238.311 97.1454 239.201C102.81 247.335 108.836 255.315 114.565 263.518C111.984 263.508 108.121 263.798 105.837 262.937C100.275 256.94 93.3569 244.598 87.8135 237.431C87.182 244.211 88.222 256.611 87.1821 262.666C85.3714 263.576 82.7621 263.285 80.6543 263.247L80.7007 207.852ZM87.6556 233.252C93.7748 232.933 96.449 233.358 101.788 230.35C104.518 226.597 105.827 220.745 101.547 217.525C97.1361 214.187 92.7905 214.265 87.5813 214.081C87.5628 220.397 87.4513 226.946 87.6556 233.252Z" fill="#7D8287"/>
<path d="M0 207.939C8.61698 207.784 20.0567 206.672 26.4545 212.988C29.3144 215.783 30.9394 219.701 30.9208 223.802C30.9394 227.932 29.3609 231.898 26.5381 234.809C21.1525 240.361 14.4668 240.245 7.52126 240.255C6.19343 241.687 6.90843 259.552 6.95486 263.276L0.0278271 263.218L0 207.939ZM6.92703 233.658C11.8391 233.3 17.1968 233.494 21.1896 230.524C29.8344 217.408 16.5097 214.149 6.79702 214.187L6.92703 233.658Z" fill="#7D8287"/>
<path d="M160.872 207.784C169.86 207.388 180.827 207.678 189.973 207.678C190.214 209.08 190.261 212.746 190.307 214.333C182.767 214.216 175.218 214.236 167.678 214.381C167.799 219.585 167.883 224.798 167.92 230.002C170.965 229.586 188.069 229.132 189.982 230.641C190.047 232.072 190.326 235.525 189.639 235.738C184.968 237.169 171.773 234.597 167.78 236.87L167.632 239.007C167.697 245.014 167.799 251.011 167.92 257.018C171.3 256.582 186.556 256.457 189.778 256.979C190.576 258.381 190.502 261.68 189.704 263.044C185.739 263.837 165.663 263.314 160.714 263.276C161.216 245.352 160.909 225.814 160.872 207.784Z" fill="#7D8287"/>
<path d="M39.8907 207.891C44.8956 208.065 66.9023 207.02 69.0751 208.722C69.4373 211.17 69.4465 211.566 69.1773 214.013C67.0044 214.681 50.439 214.362 46.8084 214.391C46.9012 219.614 46.9105 224.827 46.8363 230.05C51.1355 229.48 63.6709 229.789 68.9451 229.77L69.3537 236.251C66.2523 236.212 47.9412 235.699 46.5484 236.696L46.3627 239.607C46.3348 245.372 46.3905 251.137 46.5298 256.902C50.6526 256.602 65.983 256.099 69.1773 257.627C69.688 259.465 69.7808 261.641 68.583 263.131C63.8381 263.904 45.5734 263.392 39.5378 263.411C40.1507 245.546 39.8443 225.891 39.8907 207.891Z" fill="#7D8287"/>
<path d="M221.098 206.662C226.985 206.034 236.066 206.333 240.347 211.083C242.64 213.636 242.046 215.977 241.879 219.256C235.305 215.048 229.743 212.06 221.776 213.414C203.585 216.538 199.091 243.998 214.022 254.377C220.364 258.788 226.103 258.304 233.113 256.805C236.93 254.861 237.923 254.251 241.359 251.582L241.545 260.761C231.303 265.926 221.497 266.777 211.385 261.041C192.303 250.198 193.724 217.602 213.874 208.955C216.214 207.949 218.665 207.31 221.098 206.662Z" fill="#7D8287"/>
<path d="M272.317 208.045C274.805 207.842 276.579 207.301 278.38 208.771C278.789 210.599 278.649 210.899 278.102 212.698C275.158 215.609 270.116 214.323 265.167 214.294C265.445 230.399 265.26 247.19 265.306 263.353L258.296 263.092L258.546 256.002C258.667 242.122 258.648 228.242 258.481 214.362C255.445 214.391 247.487 215.145 245.509 212.969C245.509 210.792 245.138 210.038 246.122 208.452C250.384 207.746 266.764 208.084 272.317 208.045Z" fill="#7D8287"/>
<path d="M155.355 136.44C156.414 136.44 157.519 136.459 158.568 136.624C162.161 137.185 186.777 173.351 190.872 178.961C190.854 173.718 190.194 139.323 191.689 137.33C193.779 136.624 194.624 136.788 196.759 136.943C197.781 138.539 197.985 187.492 197.558 193.025C196.416 192.822 193.435 192.309 192.794 191.564C182.664 179.657 170.648 161.637 161.781 148.947C161.818 155.06 162.663 188.217 161.502 192.028C159.515 192.86 157.519 192.367 155.318 192.125L155.355 136.44Z" fill="url(#paint3_linear_27_40)"/>
<path d="M90.1336 136.692C92.4179 136.614 94.7392 136.266 96.5221 137.611C97.1535 140.754 96.8842 154.615 96.9399 158.745C100.422 153.889 107.544 147.448 111.695 142.814C117.702 136.102 118.947 136.672 127.127 136.672C119.021 144.217 110.673 153.59 102.613 161.628C107.85 168.369 114.555 175.798 120.135 182.675C122.967 186.128 125.354 188.846 128.409 192.086L119.522 192.048C113.087 186.196 103.477 172.596 96.8285 165.235C96.5963 173.67 97.1071 182.133 96.7821 190.539C96.6892 192.976 92.39 192.27 90.9693 191.825C89.7158 189.504 90.1243 141.992 90.1336 136.692Z" fill="url(#paint4_linear_27_40)"/>
<path d="M60.7077 135.463C66.474 135.221 75.806 137.243 76.911 144.372C75.4346 148.115 72.3425 147.602 70.1047 145.204C61.9984 136.479 47.4665 147.786 58.5256 156.288C63.5398 160.148 72.4446 161.889 76.4838 167.073C86.7908 180.315 74.3482 194.727 59.1385 193.605C53.4743 191.903 45.9437 187.086 45.3494 179.183C45.2937 178.458 46.1759 178.1 46.8073 177.665C54.1986 176.997 51.7193 182.133 56.4549 185.412C63.5491 190.326 75.1282 183.033 72.6954 174.637C70.0397 165.439 48.9337 163.988 47.5223 153.048C46.1387 142.379 51.97 137.746 60.7077 135.463Z" fill="url(#paint5_linear_27_40)"/>
<path d="M135.048 136.682C137.286 136.614 138.502 136.682 140.721 136.895C142.588 138.81 141.668 185.141 141.808 192.144L135.057 192.115L134.909 157.139C134.862 152.061 134.509 141.035 135.048 136.682Z" fill="url(#paint6_linear_27_40)"/>
<defs>
<linearGradient id="paint0_linear_27_40" x1="80.8093" y1="61.3724" x2="173.102" y2="61.3724" gradientUnits="userSpaceOnUse">
<stop stop-color="#B76A66"/>
<stop offset="1" stop-color="#512F2D"/>
</linearGradient>
<linearGradient id="paint1_linear_27_40" x1="110.349" y1="29.719" x2="135.474" y2="29.719" gradientUnits="userSpaceOnUse">
<stop stop-color="#B76A66"/>
<stop offset="1" stop-color="#512F2D"/>
</linearGradient>
<linearGradient id="paint2_linear_27_40" x1="90.9648" y1="74.0163" x2="109.517" y2="74.0163" gradientUnits="userSpaceOnUse">
<stop stop-color="#B76A66"/>
<stop offset="1" stop-color="#512F2D"/>
</linearGradient>
<linearGradient id="paint3_linear_27_40" x1="155.318" y1="164.732" x2="197.768" y2="164.732" gradientUnits="userSpaceOnUse">
<stop stop-color="#B76A66"/>
<stop offset="1" stop-color="#512F2D"/>
</linearGradient>
<linearGradient id="paint4_linear_27_40" x1="90.0627" y1="164.434" x2="128.409" y2="164.434" gradientUnits="userSpaceOnUse">
<stop stop-color="#B76A66"/>
<stop offset="1" stop-color="#512F2D"/>
</linearGradient>
<linearGradient id="paint5_linear_27_40" x1="45.3469" y1="164.555" x2="80.2621" y2="164.555" gradientUnits="userSpaceOnUse">
<stop stop-color="#B76A66"/>
<stop offset="1" stop-color="#512F2D"/>
</linearGradient>
<linearGradient id="paint6_linear_27_40" x1="134.752" y1="164.401" x2="141.914" y2="164.401" gradientUnits="userSpaceOnUse">
<stop stop-color="#B76A66"/>
<stop offset="1" stop-color="#512F2D"/>
</linearGradient>
</defs>
</svg>
