<svg width="100" height="127" viewBox="0 0 100 127" fill="none" xmlns="http://www.w3.org/2000/svg">
<path d="M62.2838 0C68.9638 0.97 75.5638 8.52999 78.7838 14.08C82.9338 21.25 83.1438 28.42 83.7838 36.37C88.1738 43.09 102.994 50.57 98.5838 58.43C97.9838 59.5 94.0438 62.35 92.7538 63.31C97.0738 69.39 97.2138 76.43 92.7938 82.48C98.8538 103 84.9938 101.24 69.5638 100.27C58.9438 113.04 64.6438 116.35 63.3338 125.96C61.9338 127.05 62.5338 126.73 60.5738 126.9C54.6038 122.62 60.7738 104.14 63.8738 98.89C60.2838 97.89 52.7138 96.89 52.9638 92.57C58.4738 88.44 97.9538 109.63 88.5338 81.97C88.3438 81.41 90.2438 77.11 90.6438 76.21C88.4738 74.76 84.9238 77.36 82.4238 74.52L82.6138 73.19C84.1738 71.56 88.3638 70.39 90.7038 69.56C86.1638 60.68 88.5738 60.15 95.6938 54.95C91.7738 50.84 84.9738 46.04 81.8338 41.63C76.3938 33.99 80.0738 24.51 74.6838 16.2C72.2538 12.48 70.6838 10.82 67.7238 7.45999C69.1938 13.19 69.8638 17.54 70.7438 23.42C71.7838 43.21 70.7338 52.8 54.7838 65.94C51.3738 68.75 46.3438 74.25 44.8138 78.29C40.0538 90.88 36.9838 104.62 30.4438 116.46C29.1038 118.88 22.4838 128.31 19.3738 126.14C19.1038 121.84 25.6638 115.1 27.7338 111.05C28.9438 108.66 29.7838 106.7 30.8038 104.23C29.3638 104.71 27.1538 105.42 25.7638 105.53C-11.0362 108.51 -1.2862 68.93 11.5138 49.37C13.7838 45.91 17.1238 36.82 21.9638 37.48C28.3738 42.11 38.9838 66.62 41.3138 74.95C47.7838 62.6 55.0338 61.6 61.9138 50.93C69.4438 38.92 66.8138 24.54 63.7938 11.63C63.0238 8.33 61.9038 3.26 62.2838 0ZM21.2138 101.5C51.9438 97.3 30.2838 57.82 20.9938 43.43C15.4238 52.98 10.7638 61.28 6.77381 71.69C1.44381 85.61 4.31378 99.62 21.2138 101.5Z" fill="url(#paint0_linear_27_76)"/>
<path d="M44.7937 7.51001C50.3337 10.59 57.0737 27.87 58.3337 34.25C60.4537 44.88 56.3037 51.93 45.6737 53.94C36.7937 53.16 31.7137 48.25 31.8137 39.33C31.9137 31.79 39.7437 12.36 44.7937 7.51001ZM47.1637 48.79C59.7037 42.81 52.0037 29.71 47.7537 20.42C47.1137 19.02 46.0537 16.77 44.9337 15.77C40.7437 25.45 27.8437 48.11 47.1637 48.79Z" fill="url(#paint1_linear_27_76)"/>
<path d="M18.7339 57.53C23.2139 58.56 25.7738 66.31 27.4638 70.55C31.2138 79.93 34.4639 90.88 22.7239 95.5C2.87385 96.14 13.0439 74.19 17.8239 64.81C18.0539 64.35 18.5539 58.69 18.7339 57.53ZM21.0239 91.55C30.9839 86.73 25.0338 75.79 21.1538 68.34C18.1138 74.72 9.56387 88.49 21.0239 91.55Z" fill="url(#paint2_linear_27_76)"/>
<defs>
<linearGradient id="paint0_linear_27_76" x1="0" y1="63.45" x2="99.3943" y2="63.45" gradientUnits="userSpaceOnUse">
<stop stop-color="#B76A66"/>
<stop offset="1" stop-color="#512F2D"/>
</linearGradient>
<linearGradient id="paint1_linear_27_76" x1="31.8123" y1="30.725" x2="58.8703" y2="30.725" gradientUnits="userSpaceOnUse">
<stop stop-color="#B76A66"/>
<stop offset="1" stop-color="#512F2D"/>
</linearGradient>
<linearGradient id="paint2_linear_27_76" x1="10.9368" y1="76.5219" x2="30.9162" y2="76.5219" gradientUnits="userSpaceOnUse">
<stop stop-color="#B76A66"/>
<stop offset="1" stop-color="#512F2D"/>
</linearGradient>
</defs>
</svg>
